<svg width="21" height="35" xmlns="http://www.w3.org/2000/svg">
 <!-- Created with Method Draw - http://github.com/duopixel/Method-Draw/ -->

 <g>
  <title>background</title>
  <rect fill="none" id="canvas_background" height="37" width="23" y="-1" x="-1"/>
  <g display="none" overflow="visible" y="0" x="0" height="100%" width="100%" id="canvasGrid">
   <rect fill="url(#gridpattern)" stroke-width="0" y="0" x="0" height="100%" width="100%"/>
  </g>
 </g>
 <g>
  <title>Layer 1</title>
  <path stroke="null" id="svg_5" fill="#515151" d="m4.319101,20.210855l-3.824272,-3.824272c-0.350708,-0.350708 -0.350708,-0.924448 0,-1.274757l0.319188,-0.319587c0.34991,-0.350309 0.924049,-0.350309 1.274358,0l2.918576,2.918576l2.918975,-2.918576c0.350309,-0.350309 0.924448,-0.350309 1.274358,0l0.319188,0.319587c0.350708,0.350309 0.350708,0.924049 0,1.274757l-3.82507,3.824272c-0.187922,0.188321 -0.44048,0.272108 -0.687451,0.258143c-0.246972,0.013964 -0.49913,-0.069822 -0.68785,-0.258143z"/>
  <g id="svg_6"/>
 </g>
</svg>